<?xml version="1.0" encoding="UTF-8" standalone="no"?>
<svg
   xmlns:dc="http://purl.org/dc/elements/1.1/"
   xmlns:cc="http://creativecommons.org/ns#"
   xmlns:rdf="http://www.w3.org/1999/02/22-rdf-syntax-ns#"
   xmlns:svg="http://www.w3.org/2000/svg"
   xmlns="http://www.w3.org/2000/svg"
   xmlns:sodipodi="http://sodipodi.sourceforge.net/DTD/sodipodi-0.dtd"
   xmlns:inkscape="http://www.inkscape.org/namespaces/inkscape"
   height="108pt"
   viewBox="0 0 108 108"
   width="108pt"
   version="1.1"
   id="svg154"
   sodipodi:docname="icon.svg"
   inkscape:version="1.0.1 (c497b03c, 2020-09-10)"
   inkscape:export-filename="/Users/calaway/code/github/calaway/cryptoquote/images/icon-144.png"
   inkscape:export-xdpi="96"
   inkscape:export-ydpi="96">
  <metadata
     id="metadata160">
    <rdf:RDF>
      <cc:Work
         rdf:about="">
        <dc:format>image/svg+xml</dc:format>
        <dc:type
           rdf:resource="http://purl.org/dc/dcmitype/StillImage" />
        <dc:title></dc:title>
      </cc:Work>
    </rdf:RDF>
  </metadata>
  <defs
     id="defs158" />
  <sodipodi:namedview
     pagecolor="#ffffff"
     bordercolor="#666666"
     borderopacity="1"
     objecttolerance="10"
     gridtolerance="10"
     guidetolerance="10"
     inkscape:pageopacity="0"
     inkscape:pageshadow="2"
     inkscape:window-width="1154"
     inkscape:window-height="708"
     id="namedview156"
     showgrid="false"
     inkscape:zoom="3.4722222"
     inkscape:cx="72"
     inkscape:cy="72"
     inkscape:window-x="111"
     inkscape:window-y="44"
     inkscape:window-maximized="0"
     inkscape:current-layer="svg154" />
  <g
     fill="grey"
     stroke="#ffffff"
     id="g152"
     transform="matrix(0.21052632,0,0,0.21052632,-2.0559211e-4,-2.0559211e-4)"
     style="fill:#808080">
    <path
       d="m 352,248 h 16 v 16 h -16 z m 0,0"
       id="path112"
       style="fill:#808080" />
    <path
       d="m 155.00781,305.06641 13.85938,-8 7.99609,13.85546 -13.85547,8 z m 0,0"
       id="path114"
       style="fill:#808080" />
    <path
       d="m 335.14062,201.07031 13.85547,-7.99609 8,13.85547 -13.85547,8 z m 0,0"
       id="path116"
       style="fill:#808080" />
    <path
       d="m 193.06641,348.99219 8,-13.85547 13.85937,7.99609 -8,13.85938 z m 0,0"
       id="path118"
       style="fill:#808080" />
    <path
       d="m 297.07422,168.86328 7.99609,-13.85547 13.85938,7.9961 -8,13.85937 z m 0,0"
       id="path120"
       style="fill:#808080" />
    <path
       d="m 141.07422,72.9375 13.85547,-8 8,13.859375 -13.85938,7.996094 z m 0,0"
       id="path122"
       style="fill:#808080" />
    <path
       d="m 349.07031,433.19922 13.85938,-8 8,13.85937 -13.85938,7.9961 z m 0,0"
       id="path124"
       style="fill:#808080" />
    <path
       d="m 40,248 h 16 v 16 H 40 Z m 0,0"
       id="path126"
       style="fill:#808080" />
    <path
       d="m 143.66797,257.76172 15.93359,-1.39453 1.39453,15.9375 -15.9375,1.39062 z m 0,0"
       id="path128"
       style="fill:#808080" />
    <path
       d="m 456,248 h 16 v 16 h -16 z m 0,0"
       id="path130"
       style="fill:#808080" />
    <path
       d="m 141.06641,439.0625 7.99609,-13.85938 13.85937,8 -8,13.85547 z m 0,0"
       id="path132"
       style="fill:#808080" />
    <path
       d="m 349.06641,78.796875 8,-13.855469 13.85937,8 -8,13.855469 z m 0,0"
       id="path134"
       style="fill:#808080" />
    <path
       d="m 220.60156,132.92187 c -9.375,-9.37109 -24.5664,-9.37109 -33.9375,0 l -33.94531,33.94141 c -9.23828,9.39453 -9.17578,24.48438 0.14453,33.80469 9.31641,9.3164 24.40625,9.375 33.80078,0.13281 l 33.9375,-33.94531 c 9.36719,-9.3711 9.36719,-24.5625 0,-33.9336 z m -11.3125,22.62891 -33.94531,33.94531 c -3.125,3.13282 -8.19922,3.13672 -11.33203,0.0117 -3.13281,-3.125 -3.13672,-8.19922 -0.0117,-11.33203 l 33.94531,-33.94531 c 3.125,-3.1211 8.19141,-3.1211 11.31641,0.004 3.12109,3.12891 3.12109,8.19532 -0.004,11.31641 z m 0,0"
       id="path136"
       style="fill:#808080" />
    <path
       d="M 256,0 C 114.61328,0 0,114.61328 0,256 0,397.38672 114.61328,512 256,512 397.38672,512 512,397.38672 512,256 511.83984,114.67969 397.32031,0.160156 256,0 Z m 163.83203,80.855469 -68,68.000001 C 337.08203,135.57812 319.74219,125.5 300.90234,119.25781 l 24.90625,-92.859372 c 35.08985,10.726562 67.25782,29.355468 94.02344,54.457031 z m -74.78516,267.023441 -39.58984,-39.58985 -39.60156,39.58985 -16.96875,-16.96875 39.60156,-39.59766 -84.85547,-84.84766 -11.3125,11.3125 c -10.08984,10.17578 -24.85547,14.17969 -38.70312,10.49219 -13.85156,-3.69141 -24.66797,-14.50781 -28.35547,-28.35547 -3.69141,-13.85156 0.3125,-28.61719 10.49219,-38.70703 L 181,115.95313 c 15.62109,-15.62891 40.95313,-15.63672 56.58594,-0.0156 15.6289,15.62109 15.63672,40.95312 0.0156,56.58203 l -11.3125,11.3125 158.39844,158.39844 -62.28906,62.22656 -16.96485,-16.97656 z M 291.375,378.92969 c -42.41016,12.40625 -88.21875,1.98047 -121.08594,-27.5586 -32.86328,-29.53515 -48.10156,-73.97656 -40.27344,-117.46875 22.27344,17.06641 53.73438,15.01172 73.60157,-4.79687 l 62.22265,62.22266 -39.59375,39.60156 39.59375,39.58984 39.60157,-39.58984 16.95703,16.94922 z m 81.51953,-71.08203 -124,-124 c 14.50781,-14.51563 19.91406,-35.80078 14.08984,-55.48047 42.01954,2.16797 80.26954,24.91015 102.24219,60.79297 21.97266,35.88281 24.84766,80.28906 7.67578,118.70312 z M 256,16 c 18.29687,0.01172 36.52734,2.117188 54.34375,6.28125 l -24.86328,92.79688 C 275.78516,113.04297 265.90625,112.01172 256,112 h -0.97656 c -1.83203,-2.625 -3.88672,-5.08984 -6.13672,-7.36719 C 240.91797,96.648438 230.71484,91.277344 219.625,89.222656 L 201.67187,22.28125 C 219.48047,18.117188 237.71094,16.011719 256,16 Z m -69.79297,10.398438 16.69531,62.28125 c -12.5664,1.40625 -24.28125,7.050781 -33.21484,16.000002 L 142.82422,131.55078 92.167969,80.894531 C 118.93359,55.773438 151.10547,37.132812 186.20703,26.398438 Z m -105.351561,65.769531 50.656251,50.656251 -7.07031,7.07031 C 108.91797,165.37109 103.89063,188.5 111.58594,209.02344 L 26.398438,186.19141 C 37.125,151.10156 55.753906,118.93359 80.855469,92.167969 Z M 16,256 c 0.01172,-18.29687 2.117188,-36.52734 6.28125,-54.34375 l 92.79688,24.87109 c -4.11329,19.4336 -4.125,39.51172 -0.0391,58.95313 L 22.238281,310.34375 C 18.089844,292.52734 16,274.29297 16,256 Z m 10.398438,69.80859 92.890622,-24.88671 c 6.2461,18.83593 16.32422,36.17578 29.59766,50.92578 l -68.000001,68 C 55.773438,393.08203 37.132812,360.91016 26.398438,325.80859 Z m 65.785156,105.33594 67.999996,-68 c 14.75,13.27735 32.08985,23.35547 50.92969,29.59766 l -24.92187,92.85937 C 151.10156,474.875 118.93359,456.24609 92.167969,431.14453 Z M 256,496 c -18.29688,-0.0117 -36.52734,-2.11719 -54.34375,-6.28125 l 24.86328,-92.79687 c 9.69531,2.03515 19.57422,3.0664 29.48047,3.07812 9.90234,-0.0195 19.77734,-1.06641 29.46484,-3.12891 l 24.87891,92.84766 C 292.52734,493.88281 274.29687,495.98828 256,496 Z m 69.80859,-10.39844 -20.20703,-75.32812 16.79688,16.79687 46.67187,-46.67187 50.73828,50.73828 c -26.75781,25.10156 -58.91797,43.73047 -94,54.46484 z m 105.33594,-65.78515 -50.73828,-50.73828 26.875,-26.8711 -22.40234,-22.39844 c 3.08593,-6.10546 5.71484,-12.42968 7.875,-18.92187 l 92.84765,24.92187 c -10.72656,35.08985 -29.35547,67.25782 -54.45703,94.02344 z M 496,256 c -0.0117,18.29688 -2.11719,36.52734 -6.28125,54.34375 l -92.79688,-24.87109 c 4.12891,-19.4336 4.14844,-39.51172 0.0547,-58.95313 l 92.80078,-24.86328 C 493.91797,219.47266 496.00781,237.70703 496,256 Z M 392.72656,211.07813 c -6.24609,-18.83594 -16.32422,-36.17579 -29.59765,-50.92579 l 68,-67.999996 c 25.10937,26.769536 43.74218,58.941406 54.47265,94.039066 z m 0,0"
       id="path138"
       style="fill:#808080" />
    <path
       d="m 248,40 h 16 v 16 h -16 z m 0,0"
       id="path140"
       style="fill:#808080" />
    <path
       d="m 248,456 h 16 v 16 h -16 z m 0,0"
       id="path142"
       style="fill:#808080" />
    <path
       d="m 64.9375,154.93359 8,-13.85547 13.855469,7.9961 -8,13.85937 z m 0,0"
       id="path144"
       style="fill:#808080" />
    <path
       d="m 425.19922,362.9375 8,-13.85938 13.85547,8 -7.9961,13.85938 z m 0,0"
       id="path146"
       style="fill:#808080" />
    <path
       d="m 64.941406,357.07422 13.855469,-8 8,13.85937 -13.859375,7.9961 z m 0,0"
       id="path148"
       style="fill:#808080" />
    <path
       d="m 425.20312,149.07422 13.85547,-8 8,13.85937 -13.85937,7.9961 z m 0,0"
       id="path150"
       style="fill:#808080" />
  </g>
</svg>
